<svg xmlns="http://www.w3.org/2000/svg" xmlns:xlink="http://www.w3.org/1999/xlink" width="500" zoomAndPan="magnify" viewBox="0 0 375 374.999991" height="500" preserveAspectRatio="xMidYMid meet" version="1.0"><defs><g/></defs><g fill="#ffffff" fill-opacity="1"><g transform="translate(67.353293, 212.708986)"><g><path d="M 47.0625 0 L 44.578125 -31.015625 L 44.265625 -31.015625 L 33.546875 -0.3125 L 26.453125 -0.3125 L 15.734375 -31.015625 L 15.40625 -31.015625 L 12.9375 0 L 1.015625 0 L 5.703125 -52.328125 L 18.390625 -52.328125 L 30 -22.140625 L 41.609375 -52.328125 L 54.296875 -52.328125 L 58.984375 0 Z M 47.0625 0 "/></g></g></g><g fill="#ffffff" fill-opacity="1"><g transform="translate(121.945429, 212.708986)"><g><path d="M 30.375 -52.328125 L 51.5 0 L 38.6875 0 L 34.8125 -10.46875 L 14.90625 -10.46875 L 11.03125 0 L -1.78125 0 L 19.34375 -52.328125 Z M 30.765625 -20.921875 L 24.921875 -36.15625 L 24.796875 -36.15625 L 18.96875 -20.921875 Z M 30.765625 -20.921875 "/></g></g></g><g fill="#ffffff" fill-opacity="1"><g transform="translate(166.2656, 212.708986)"><g><path d="M 51.125 -29.296875 L 51.125 -17.953125 C 49.769531 -11.734375 46.804688 -7.023438 42.234375 -3.828125 C 37.671875 -0.640625 32.578125 0.953125 26.953125 0.953125 C 19.890625 0.953125 13.875 -1.6875 8.90625 -6.96875 C 3.9375 -12.257812 1.453125 -18.644531 1.453125 -26.125 C 1.453125 -33.738281 3.882812 -40.164062 8.75 -45.40625 C 13.613281 -50.65625 19.679688 -53.28125 26.953125 -53.28125 C 35.453125 -53.28125 42.175781 -50.296875 47.125 -44.328125 L 39.328125 -35.765625 C 36.535156 -40.253906 32.644531 -42.5 27.65625 -42.5 C 23.976562 -42.5 20.835938 -40.898438 18.234375 -37.703125 C 15.628906 -34.515625 14.328125 -30.65625 14.328125 -26.125 C 14.328125 -21.6875 15.628906 -17.890625 18.234375 -14.734375 C 20.835938 -11.585938 23.976562 -10.015625 27.65625 -10.015625 C 30.695312 -10.015625 33.347656 -10.929688 35.609375 -12.765625 C 37.867188 -14.609375 39 -17.054688 39 -20.109375 L 26.953125 -20.109375 L 26.953125 -29.296875 Z M 51.125 -29.296875 "/></g></g></g><g fill="#ffffff" fill-opacity="1"><g transform="translate(213.439094, 212.708986)"><g><path d="M 15.734375 -32.46875 L 15.734375 0 L 3.8125 0 L 3.8125 -52.328125 L 15.734375 -52.328125 L 36.53125 -19.84375 L 36.65625 -19.84375 L 36.65625 -52.328125 L 48.578125 -52.328125 L 48.578125 0 L 36.65625 0 L 15.859375 -32.46875 Z M 15.734375 -32.46875 "/></g></g></g><g fill="#ffffff" fill-opacity="1"><g transform="translate(260.422379, 212.708986)"><g><path d="M 44.015625 -52.328125 L 44.015625 -18.578125 C 44.015625 -12.148438 42.28125 -7.285156 38.8125 -3.984375 C 35.34375 -0.691406 30.269531 0.953125 23.59375 0.953125 C 16.914062 0.953125 11.84375 -0.691406 8.375 -3.984375 C 4.90625 -7.285156 3.171875 -12.148438 3.171875 -18.578125 L 3.171875 -52.328125 L 15.09375 -52.328125 L 15.09375 -22.078125 C 15.09375 -17.847656 15.757812 -14.90625 17.09375 -13.25 C 18.425781 -11.601562 20.59375 -10.78125 23.59375 -10.78125 C 26.59375 -10.78125 28.757812 -11.601562 30.09375 -13.25 C 31.425781 -14.90625 32.09375 -17.847656 32.09375 -22.078125 L 32.09375 -52.328125 Z M 44.015625 -52.328125 "/></g></g></g><path stroke-linecap="butt" transform="matrix(1.172512, 0, 0, 1.172512, 35.971218, 250.929975)" fill="none" stroke-linejoin="miter" d="M 0.00122666 5.000372 L 84.432023 5.000372 " stroke="#949300" stroke-width="10" stroke-opacity="1" stroke-miterlimit="4"/><path stroke-linecap="butt" transform="matrix(0, 1.172512, -1.172512, 0, 47.690322, 162.454295)" fill="none" stroke-linejoin="miter" d="M -0.0009978 4.999692 L 82.4642 4.999692 " stroke="#949300" stroke-width="10" stroke-opacity="1" stroke-miterlimit="4"/><path stroke-linecap="butt" transform="matrix(-1.172512, 0, 0, -1.172512, 337.564583, 124.058488)" fill="none" stroke-linejoin="miter" d="M -0.00155488 5.000526 L 84.432573 5.000526 " stroke="#949300" stroke-width="10" stroke-opacity="1" stroke-miterlimit="4"/><path stroke-linecap="butt" transform="matrix(0, -1.172512, 1.172512, 0, 325.845482, 212.534165)" fill="none" stroke-linejoin="miter" d="M -0.0008452 4.999139 L 82.464352 4.999139 " stroke="#949300" stroke-width="10" stroke-opacity="1" stroke-miterlimit="4"/></svg>